<svg width="50" height="51" viewBox="0 0 50 51" fill="none" xmlns="http://www.w3.org/2000/svg">
<g clip-path="url(#clip0_402_333)">
<path d="M25 50.7272C38.8071 50.7272 50 39.5343 50 25.7272C50 11.9201 38.8071 0.727173 25 0.727173C11.1929 0.727173 0 11.9201 0 25.7272C0 39.5343 11.1929 50.7272 25 50.7272Z" fill="#F0F0F0"/>
<path d="M25 0.727173C11.193 0.727173 0 11.9201 0 25.7272C0 28.7852 0.550098 31.7146 1.55498 34.4228H48.4451C49.45 31.7146 50 28.7852 50 25.7272C50 11.9201 38.807 0.727173 25 0.727173Z" fill="#0052B4"/>
<path d="M25 0.727173C14.2509 0.727173 5.08732 7.51155 1.55499 17.0316H48.4451C44.9127 7.51155 35.7491 0.727173 25 0.727173V0.727173Z" fill="#D80027"/>
<path d="M6.46466 14.8577V27.329C6.46466 34.4231 15.7323 36.5968 15.7323 36.5968C15.7323 36.5968 24.9999 34.4231 24.9999 27.329V14.8577H6.46466Z" fill="#D80027"/>
<path d="M10.2975 17.0315H21.1671V12.6837L18.9932 13.7706L15.7323 10.5098L12.4714 13.7706L10.2975 12.6837V17.0315Z" fill="#FFDA44"/>
<path d="M22.8261 29.0654L15.7609 22.0001L8.69562 29.0654L11.0014 31.3711L15.7609 26.6116L20.5203 31.3711L22.8261 29.0654Z" fill="#FFDA44"/>
<path d="M22.8261 22.4663H19.5296C19.715 22.1464 19.8228 21.7759 19.8228 21.3796C19.8228 20.1788 18.8494 19.2057 17.6488 19.2057C16.8193 19.2057 16.0988 19.6703 15.7323 20.3534C15.3658 19.6704 14.6454 19.2057 13.8158 19.2057C12.6152 19.2057 11.6419 20.1788 11.6419 21.3796C11.6419 21.7759 11.7497 22.1465 11.9351 22.4663H8.69562C8.69562 23.667 9.74142 24.6403 10.9419 24.6403H10.8695C10.8695 25.8409 11.8428 26.8142 13.0435 26.8142C13.0435 27.8773 13.8069 28.7605 14.8152 28.9495L13.1024 32.8169C13.9233 33.1506 14.8203 33.336 15.761 33.336C16.7016 33.336 17.5986 33.1506 18.4195 32.8169L16.7067 28.9495C17.715 28.7607 18.4784 27.8774 18.4784 26.8142C19.6791 26.8142 20.6524 25.8409 20.6524 24.6403H20.58C21.7804 24.6403 22.8261 23.6669 22.8261 22.4663V22.4663Z" fill="#F0F0F0"/>
</g>
<defs>
<clipPath id="clip0_402_333">
<rect width="50" height="50" fill="white" transform="translate(0 0.727173)"/>
</clipPath>
</defs>
</svg>
