<svg width="50" height="51" viewBox="0 0 50 51" fill="none" xmlns="http://www.w3.org/2000/svg">
<g clip-path="url(#clip0_402_333)">
<path d="M25 50.7272C38.8071 50.7272 50 39.5343 50 25.7272C50 11.9201 38.8071 0.727173 25 0.727173C11.1929 0.727173 0 11.9201 0 25.7272C0 39.5343 11.1929 50.7272 25 50.7272Z" fill="#6DA544"/>
<path d="M25 10.5098L45.6521 25.7271L25 40.9445L4.34784 25.7271L25 10.5098Z" fill="#FFDA44"/>
<path d="M25 34.4228C29.8024 34.4228 33.6956 30.5297 33.6956 25.7272C33.6956 20.9248 29.8024 17.0316 25 17.0316C20.1975 17.0316 16.3044 20.9248 16.3044 25.7272C16.3044 30.5297 20.1975 34.4228 25 34.4228Z" fill="#F0F0F0"/>
<path d="M20.6521 25.1837C19.14 25.1837 17.6808 25.4137 16.3071 25.8405C16.368 30.5905 20.2355 34.4229 25 34.4229C27.9461 34.4229 30.548 32.9564 32.121 30.7151C29.4299 27.3462 25.2892 25.1837 20.6521 25.1837V25.1837Z" fill="#0052B4"/>
<path d="M33.5345 27.3932C33.6392 26.8538 33.6957 26.2972 33.6957 25.7272C33.6957 20.9247 29.8025 17.0316 25.0001 17.0316C21.4167 17.0316 18.3405 19.1997 17.0093 22.2952C18.186 22.0513 19.4044 21.9229 20.6523 21.9229C25.7028 21.9228 30.2718 24.0222 33.5345 27.3932V27.3932Z" fill="#0052B4"/>
</g>
<defs>
<clipPath id="clip0_402_333">
<rect width="50" height="50" fill="white" transform="translate(0 0.727173)"/>
</clipPath>
</defs>
</svg>
