<svg width="412" height="61" viewBox="0 0 412 61" fill="none" xmlns="http://www.w3.org/2000/svg">
<path d="M5.28711 0.671875V22H0.892578V0.671875H5.28711ZM13.7832 9.7832V13.2109H4.08594V9.7832H13.7832ZM14.8086 0.671875V4.11426H4.08594V0.671875H14.8086ZM22.0303 0.671875V22H17.6504V0.671875H22.0303ZM30.541 0.671875V22H26.1465V0.671875H30.541ZM39.0371 9.7832V13.2109H29.3398V9.7832H39.0371ZM40.0625 0.671875V4.11426H29.3398V0.671875H40.0625ZM48.5879 4.31934L42.7871 22H38.1143L46.0391 0.671875H49.0127L48.5879 4.31934ZM53.4072 22L47.5918 4.31934L47.123 0.671875H50.126L58.0947 22H53.4072ZM53.1436 14.0605V17.5029H41.8789V14.0605H53.1436ZM72.6846 18.6162L76.9326 0.671875H79.3057L79.8477 3.66016L75.3213 22H72.7725L72.6846 18.6162ZM70.502 0.671875L74.0176 18.6162L73.7246 22H70.8828L66.1514 0.671875H70.502ZM83.583 18.543L87.0547 0.671875H91.4053L86.6885 22H83.8467L83.583 18.543ZM80.6387 0.671875L84.916 18.6895L84.7988 22H82.25L77.6943 3.64551L78.2803 0.671875H80.6387ZM111.312 10.8379V11.8486C111.312 13.4697 111.093 14.9248 110.653 16.2139C110.214 17.5029 109.594 18.6016 108.793 19.5098C107.992 20.4082 107.035 21.0967 105.922 21.5752C104.818 22.0537 103.593 22.293 102.245 22.293C100.907 22.293 99.6816 22.0537 98.5684 21.5752C97.4648 21.0967 96.5078 20.4082 95.6973 19.5098C94.8867 18.6016 94.2568 17.5029 93.8076 16.2139C93.3682 14.9248 93.1484 13.4697 93.1484 11.8486V10.8379C93.1484 9.20703 93.3682 7.75195 93.8076 6.47266C94.2471 5.18359 94.8672 4.08496 95.668 3.17676C96.4785 2.26855 97.4355 1.5752 98.5391 1.09668C99.6523 0.618164 100.878 0.378906 102.216 0.378906C103.563 0.378906 104.789 0.618164 105.893 1.09668C107.006 1.5752 107.963 2.26855 108.764 3.17676C109.574 4.08496 110.199 5.18359 110.639 6.47266C111.088 7.75195 111.312 9.20703 111.312 10.8379ZM106.874 11.8486V10.8086C106.874 9.67578 106.771 8.67969 106.566 7.82031C106.361 6.96094 106.059 6.23828 105.658 5.65234C105.258 5.06641 104.77 4.62695 104.193 4.33398C103.617 4.03125 102.958 3.87988 102.216 3.87988C101.474 3.87988 100.814 4.03125 100.238 4.33398C99.6719 4.62695 99.1885 5.06641 98.7881 5.65234C98.3975 6.23828 98.0996 6.96094 97.8945 7.82031C97.6895 8.67969 97.5869 9.67578 97.5869 10.8086V11.8486C97.5869 12.9717 97.6895 13.9678 97.8945 14.8369C98.0996 15.6963 98.4023 16.4238 98.8027 17.0195C99.2031 17.6055 99.6914 18.0498 100.268 18.3525C100.844 18.6553 101.503 18.8066 102.245 18.8066C102.987 18.8066 103.646 18.6553 104.223 18.3525C104.799 18.0498 105.282 17.6055 105.673 17.0195C106.063 16.4238 106.361 15.6963 106.566 14.8369C106.771 13.9678 106.874 12.9717 106.874 11.8486ZM114.477 0.671875H122.431C124.062 0.671875 125.463 0.916016 126.635 1.4043C127.816 1.89258 128.725 2.61523 129.359 3.57227C129.994 4.5293 130.312 5.70605 130.312 7.10254C130.312 8.24512 130.116 9.22656 129.726 10.0469C129.345 10.8574 128.803 11.5361 128.1 12.083C127.406 12.6201 126.591 13.0498 125.653 13.3721L124.262 14.1045H117.348L117.318 10.6768H122.46C123.231 10.6768 123.871 10.54 124.379 10.2666C124.887 9.99316 125.268 9.6123 125.521 9.12402C125.785 8.63574 125.917 8.06934 125.917 7.4248C125.917 6.74121 125.79 6.15039 125.536 5.65234C125.282 5.1543 124.896 4.77344 124.379 4.50977C123.861 4.24609 123.212 4.11426 122.431 4.11426H118.871V22H114.477V0.671875ZM126.4 22L121.537 12.4932L126.181 12.4639L131.103 21.7949V22H126.4ZM147.406 18.5723V22H136.669V18.5723H147.406ZM138.09 0.671875V22H133.695V0.671875H138.09ZM156.474 22H151.83L151.859 18.5723H156.474C157.626 18.5723 158.598 18.3135 159.389 17.7959C160.18 17.2686 160.775 16.502 161.176 15.4961C161.586 14.4902 161.791 13.2744 161.791 11.8486V10.8086C161.791 9.71484 161.674 8.75293 161.439 7.92285C161.215 7.09277 160.878 6.39453 160.429 5.82812C159.979 5.26172 159.428 4.83691 158.773 4.55371C158.119 4.26074 157.367 4.11426 156.518 4.11426H151.742V0.671875H156.518C157.943 0.671875 159.247 0.916016 160.429 1.4043C161.62 1.88281 162.65 2.57129 163.52 3.46973C164.389 4.36816 165.058 5.44238 165.526 6.69238C166.005 7.93262 166.244 9.31445 166.244 10.8379V11.8486C166.244 13.3623 166.005 14.7441 165.526 15.9941C165.058 17.2441 164.389 18.3184 163.52 19.2168C162.66 20.1055 161.63 20.7939 160.429 21.2822C159.237 21.7607 157.919 22 156.474 22ZM154.32 0.671875V22H149.926V0.671875H154.32ZM189.271 14.9248H193.651C193.563 16.3604 193.168 17.6348 192.465 18.748C191.771 19.8613 190.8 20.7305 189.55 21.3555C188.31 21.9805 186.815 22.293 185.067 22.293C183.7 22.293 182.475 22.0586 181.391 21.5898C180.307 21.1113 179.379 20.4277 178.607 19.5391C177.846 18.6504 177.265 17.5762 176.864 16.3164C176.464 15.0566 176.264 13.6455 176.264 12.083V10.6035C176.264 9.04102 176.469 7.62988 176.879 6.37012C177.299 5.10059 177.895 4.02148 178.666 3.13281C179.447 2.24414 180.38 1.56055 181.464 1.08203C182.548 0.603516 183.759 0.364258 185.097 0.364258C186.874 0.364258 188.373 0.686523 189.594 1.33105C190.824 1.97559 191.776 2.86426 192.45 3.99707C193.134 5.12988 193.544 6.41895 193.681 7.86426H189.286C189.237 7.00488 189.066 6.27734 188.773 5.68164C188.48 5.07617 188.036 4.62207 187.44 4.31934C186.854 4.00684 186.073 3.85059 185.097 3.85059C184.364 3.85059 183.725 3.9873 183.178 4.26074C182.631 4.53418 182.172 4.94922 181.801 5.50586C181.43 6.0625 181.151 6.76562 180.966 7.61523C180.79 8.45508 180.702 9.44141 180.702 10.5742V12.083C180.702 13.1865 180.785 14.1582 180.951 14.998C181.117 15.8281 181.371 16.5312 181.713 17.1074C182.064 17.6738 182.514 18.1035 183.061 18.3965C183.617 18.6797 184.286 18.8213 185.067 18.8213C185.985 18.8213 186.742 18.6748 187.338 18.3818C187.934 18.0889 188.388 17.6543 188.7 17.0781C189.022 16.502 189.213 15.7842 189.271 14.9248ZM208.314 0.671875H212.694V14.7637C212.694 16.4043 212.343 17.7861 211.64 18.9092C210.946 20.0322 209.984 20.877 208.754 21.4434C207.533 22.0098 206.127 22.293 204.535 22.293C202.943 22.293 201.527 22.0098 200.287 21.4434C199.057 20.877 198.09 20.0322 197.387 18.9092C196.693 17.7861 196.347 16.4043 196.347 14.7637V0.671875H200.741V14.7637C200.741 15.7207 200.893 16.502 201.195 17.1074C201.498 17.7129 201.933 18.1572 202.499 18.4404C203.075 18.7236 203.754 18.8652 204.535 18.8652C205.336 18.8652 206.015 18.7236 206.571 18.4404C207.138 18.1572 207.567 17.7129 207.86 17.1074C208.163 16.502 208.314 15.7207 208.314 14.7637V0.671875ZM224.618 14.3975H219.184V10.9697H224.618C225.458 10.9697 226.142 10.833 226.669 10.5596C227.196 10.2764 227.582 9.88574 227.826 9.3877C228.07 8.88965 228.192 8.32812 228.192 7.70312C228.192 7.06836 228.07 6.47754 227.826 5.93066C227.582 5.38379 227.196 4.94434 226.669 4.6123C226.142 4.28027 225.458 4.11426 224.618 4.11426H220.707V22H216.312V0.671875H224.618C226.288 0.671875 227.719 0.974609 228.91 1.58008C230.111 2.17578 231.029 3.00098 231.664 4.05566C232.299 5.11035 232.616 6.31641 232.616 7.67383C232.616 9.05078 232.299 10.2422 231.664 11.248C231.029 12.2539 230.111 13.0303 228.91 13.5771C227.719 14.124 226.288 14.3975 224.618 14.3975ZM254.706 18.8359L260.478 23.4062L257.709 25.8086L252.025 21.2383L254.706 18.8359ZM260.624 10.8379V11.8486C260.624 13.4697 260.404 14.9248 259.965 16.2139C259.535 17.5029 258.915 18.6016 258.104 19.5098C257.294 20.4082 256.337 21.0967 255.233 21.5752C254.13 22.0537 252.904 22.293 251.557 22.293C250.219 22.293 248.993 22.0537 247.88 21.5752C246.767 21.0967 245.805 20.4082 244.994 19.5098C244.184 18.6016 243.554 17.5029 243.104 16.2139C242.665 14.9248 242.445 13.4697 242.445 11.8486V10.8379C242.445 9.20703 242.665 7.75195 243.104 6.47266C243.554 5.18359 244.179 4.08496 244.979 3.17676C245.78 2.26855 246.737 1.5752 247.851 1.09668C248.964 0.618164 250.189 0.378906 251.527 0.378906C252.875 0.378906 254.101 0.618164 255.204 1.09668C256.317 1.5752 257.279 2.26855 258.09 3.17676C258.9 4.08496 259.525 5.18359 259.965 6.47266C260.404 7.75195 260.624 9.20703 260.624 10.8379ZM256.186 11.8486V10.8086C256.186 9.67578 256.078 8.67969 255.863 7.82031C255.658 6.96094 255.355 6.23828 254.955 5.65234C254.564 5.06641 254.081 4.62695 253.505 4.33398C252.929 4.03125 252.27 3.87988 251.527 3.87988C250.785 3.87988 250.126 4.03125 249.55 4.33398C248.974 4.62695 248.49 5.06641 248.1 5.65234C247.709 6.23828 247.411 6.96094 247.206 7.82031C247.001 8.67969 246.898 9.67578 246.898 10.8086V11.8486C246.898 12.9717 247.001 13.9678 247.206 14.8369C247.411 15.6963 247.709 16.4238 248.1 17.0195C248.5 17.6055 248.988 18.0498 249.564 18.3525C250.15 18.6553 250.814 18.8066 251.557 18.8066C252.299 18.8066 252.953 18.6553 253.52 18.3525C254.096 18.0498 254.579 17.6055 254.97 17.0195C255.37 16.4238 255.673 15.6963 255.878 14.8369C256.083 13.9678 256.186 12.9717 256.186 11.8486ZM272.475 4.31934L266.674 22H262.001L269.926 0.671875H272.899L272.475 4.31934ZM277.294 22L271.479 4.31934L271.01 0.671875H274.013L281.981 22H277.294ZM277.03 14.0605V17.5029H265.766V14.0605H277.03ZM291.679 0.671875V22H287.299V0.671875H291.679ZM298.241 0.671875V4.11426H280.839V0.671875H298.241ZM307.836 4.31934L302.035 22H297.362L305.287 0.671875H308.261L307.836 4.31934ZM312.655 22L306.84 4.31934L306.371 0.671875H309.374L317.343 22H312.655ZM312.392 14.0605V17.5029H301.127V14.0605H312.392ZM319.32 0.671875H327.274C328.905 0.671875 330.307 0.916016 331.479 1.4043C332.66 1.89258 333.568 2.61523 334.203 3.57227C334.838 4.5293 335.155 5.70605 335.155 7.10254C335.155 8.24512 334.96 9.22656 334.569 10.0469C334.188 10.8574 333.646 11.5361 332.943 12.083C332.25 12.6201 331.435 13.0498 330.497 13.3721L329.105 14.1045H322.191L322.162 10.6768H327.304C328.075 10.6768 328.715 10.54 329.223 10.2666C329.73 9.99316 330.111 9.6123 330.365 9.12402C330.629 8.63574 330.761 8.06934 330.761 7.4248C330.761 6.74121 330.634 6.15039 330.38 5.65234C330.126 5.1543 329.74 4.77344 329.223 4.50977C328.705 4.24609 328.056 4.11426 327.274 4.11426H323.715V22H319.32V0.671875ZM331.244 22L326.381 12.4932L331.024 12.4639L335.946 21.7949V22H331.244ZM360.16 18.7041V22H345.57V19.1875L352.47 11.79C353.163 11.0186 353.71 10.3398 354.11 9.75391C354.511 9.1582 354.799 8.62598 354.975 8.15723C355.16 7.67871 355.253 7.22461 355.253 6.79492C355.253 6.15039 355.146 5.59863 354.931 5.13965C354.716 4.6709 354.398 4.30957 353.979 4.05566C353.568 3.80176 353.061 3.6748 352.455 3.6748C351.811 3.6748 351.254 3.83105 350.785 4.14355C350.326 4.45605 349.975 4.89062 349.73 5.44727C349.496 6.00391 349.379 6.63379 349.379 7.33691H345.146C345.146 6.06738 345.448 4.90527 346.054 3.85059C346.659 2.78613 347.514 1.94141 348.617 1.31641C349.721 0.681641 351.029 0.364258 352.543 0.364258C354.037 0.364258 355.297 0.608398 356.322 1.09668C357.357 1.5752 358.139 2.26855 358.666 3.17676C359.203 4.0752 359.472 5.14941 359.472 6.39941C359.472 7.10254 359.359 7.79102 359.135 8.46484C358.91 9.12891 358.588 9.79297 358.168 10.457C357.758 11.1113 357.26 11.7754 356.674 12.4492C356.088 13.123 355.438 13.8213 354.726 14.5439L351.02 18.7041H360.16ZM377.152 9.46094V13.1523C377.152 14.7539 376.981 16.1357 376.64 17.2979C376.298 18.4502 375.805 19.3975 375.16 20.1396C374.525 20.8721 373.769 21.4141 372.89 21.7656C372.011 22.1172 371.034 22.293 369.96 22.293C369.101 22.293 368.3 22.1855 367.558 21.9707C366.815 21.7461 366.146 21.3994 365.551 20.9307C364.965 20.4619 364.457 19.8711 364.027 19.1582C363.607 18.4355 363.285 17.5762 363.061 16.5801C362.836 15.584 362.724 14.4414 362.724 13.1523V9.46094C362.724 7.85938 362.895 6.4873 363.236 5.34473C363.588 4.19238 364.081 3.25 364.716 2.51758C365.36 1.78516 366.122 1.24805 367.001 0.90625C367.88 0.554688 368.856 0.378906 369.931 0.378906C370.79 0.378906 371.586 0.491211 372.318 0.71582C373.061 0.930664 373.729 1.26758 374.325 1.72656C374.921 2.18555 375.429 2.77637 375.849 3.49902C376.269 4.21191 376.591 5.06641 376.815 6.0625C377.04 7.04883 377.152 8.18164 377.152 9.46094ZM372.919 13.709V8.88965C372.919 8.11816 372.875 7.44434 372.787 6.86816C372.709 6.29199 372.587 5.80371 372.421 5.40332C372.255 4.99316 372.05 4.66113 371.806 4.40723C371.562 4.15332 371.283 3.96777 370.971 3.85059C370.658 3.7334 370.312 3.6748 369.931 3.6748C369.452 3.6748 369.027 3.76758 368.656 3.95312C368.295 4.13867 367.987 4.43652 367.733 4.84668C367.479 5.24707 367.284 5.78418 367.147 6.45801C367.021 7.12207 366.957 7.93262 366.957 8.88965V13.709C366.957 14.4805 366.996 15.1592 367.074 15.7451C367.162 16.3311 367.289 16.834 367.455 17.2539C367.631 17.6641 367.836 18.001 368.07 18.2646C368.314 18.5186 368.593 18.7041 368.905 18.8213C369.228 18.9385 369.579 18.9971 369.96 18.9971C370.429 18.9971 370.844 18.9043 371.205 18.7188C371.576 18.5234 371.889 18.2207 372.143 17.8105C372.406 17.3906 372.602 16.8438 372.729 16.1699C372.855 15.4961 372.919 14.6758 372.919 13.709ZM394.613 18.7041V22H380.023V19.1875L386.923 11.79C387.616 11.0186 388.163 10.3398 388.563 9.75391C388.964 9.1582 389.252 8.62598 389.428 8.15723C389.613 7.67871 389.706 7.22461 389.706 6.79492C389.706 6.15039 389.599 5.59863 389.384 5.13965C389.169 4.6709 388.852 4.30957 388.432 4.05566C388.021 3.80176 387.514 3.6748 386.908 3.6748C386.264 3.6748 385.707 3.83105 385.238 4.14355C384.779 4.45605 384.428 4.89062 384.184 5.44727C383.949 6.00391 383.832 6.63379 383.832 7.33691H379.599C379.599 6.06738 379.901 4.90527 380.507 3.85059C381.112 2.78613 381.967 1.94141 383.07 1.31641C384.174 0.681641 385.482 0.364258 386.996 0.364258C388.49 0.364258 389.75 0.608398 390.775 1.09668C391.811 1.5752 392.592 2.26855 393.119 3.17676C393.656 4.0752 393.925 5.14941 393.925 6.39941C393.925 7.10254 393.812 7.79102 393.588 8.46484C393.363 9.12891 393.041 9.79297 392.621 10.457C392.211 11.1113 391.713 11.7754 391.127 12.4492C390.541 13.123 389.892 13.8213 389.179 14.5439L385.473 18.7041H394.613ZM411.84 18.7041V22H397.25V19.1875L404.149 11.79C404.843 11.0186 405.39 10.3398 405.79 9.75391C406.19 9.1582 406.479 8.62598 406.654 8.15723C406.84 7.67871 406.933 7.22461 406.933 6.79492C406.933 6.15039 406.825 5.59863 406.61 5.13965C406.396 4.6709 406.078 4.30957 405.658 4.05566C405.248 3.80176 404.74 3.6748 404.135 3.6748C403.49 3.6748 402.934 3.83105 402.465 4.14355C402.006 4.45605 401.654 4.89062 401.41 5.44727C401.176 6.00391 401.059 6.63379 401.059 7.33691H396.825C396.825 6.06738 397.128 4.90527 397.733 3.85059C398.339 2.78613 399.193 1.94141 400.297 1.31641C401.4 0.681641 402.709 0.364258 404.223 0.364258C405.717 0.364258 406.977 0.608398 408.002 1.09668C409.037 1.5752 409.818 2.26855 410.346 3.17676C410.883 4.0752 411.151 5.14941 411.151 6.39941C411.151 7.10254 411.039 7.79102 410.814 8.46484C410.59 9.12891 410.268 9.79297 409.848 10.457C409.438 11.1113 408.939 11.7754 408.354 12.4492C407.768 13.123 407.118 13.8213 406.405 14.5439L402.699 18.7041H411.84Z" fill="url(#paint0_linear_175_1883)"/>
<path d="M5.28711 0.671875V22H0.892578V0.671875H5.28711ZM13.7832 9.7832V13.2109H4.08594V9.7832H13.7832ZM14.8086 0.671875V4.11426H4.08594V0.671875H14.8086ZM22.0303 0.671875V22H17.6504V0.671875H22.0303ZM30.541 0.671875V22H26.1465V0.671875H30.541ZM39.0371 9.7832V13.2109H29.3398V9.7832H39.0371ZM40.0625 0.671875V4.11426H29.3398V0.671875H40.0625ZM48.5879 4.31934L42.7871 22H38.1143L46.0391 0.671875H49.0127L48.5879 4.31934ZM53.4072 22L47.5918 4.31934L47.123 0.671875H50.126L58.0947 22H53.4072ZM53.1436 14.0605V17.5029H41.8789V14.0605H53.1436ZM72.6846 18.6162L76.9326 0.671875H79.3057L79.8477 3.66016L75.3213 22H72.7725L72.6846 18.6162ZM70.502 0.671875L74.0176 18.6162L73.7246 22H70.8828L66.1514 0.671875H70.502ZM83.583 18.543L87.0547 0.671875H91.4053L86.6885 22H83.8467L83.583 18.543ZM80.6387 0.671875L84.916 18.6895L84.7988 22H82.25L77.6943 3.64551L78.2803 0.671875H80.6387ZM111.312 10.8379V11.8486C111.312 13.4697 111.093 14.9248 110.653 16.2139C110.214 17.5029 109.594 18.6016 108.793 19.5098C107.992 20.4082 107.035 21.0967 105.922 21.5752C104.818 22.0537 103.593 22.293 102.245 22.293C100.907 22.293 99.6816 22.0537 98.5684 21.5752C97.4648 21.0967 96.5078 20.4082 95.6973 19.5098C94.8867 18.6016 94.2568 17.5029 93.8076 16.2139C93.3682 14.9248 93.1484 13.4697 93.1484 11.8486V10.8379C93.1484 9.20703 93.3682 7.75195 93.8076 6.47266C94.2471 5.18359 94.8672 4.08496 95.668 3.17676C96.4785 2.26855 97.4355 1.5752 98.5391 1.09668C99.6523 0.618164 100.878 0.378906 102.216 0.378906C103.563 0.378906 104.789 0.618164 105.893 1.09668C107.006 1.5752 107.963 2.26855 108.764 3.17676C109.574 4.08496 110.199 5.18359 110.639 6.47266C111.088 7.75195 111.312 9.20703 111.312 10.8379ZM106.874 11.8486V10.8086C106.874 9.67578 106.771 8.67969 106.566 7.82031C106.361 6.96094 106.059 6.23828 105.658 5.65234C105.258 5.06641 104.77 4.62695 104.193 4.33398C103.617 4.03125 102.958 3.87988 102.216 3.87988C101.474 3.87988 100.814 4.03125 100.238 4.33398C99.6719 4.62695 99.1885 5.06641 98.7881 5.65234C98.3975 6.23828 98.0996 6.96094 97.8945 7.82031C97.6895 8.67969 97.5869 9.67578 97.5869 10.8086V11.8486C97.5869 12.9717 97.6895 13.9678 97.8945 14.8369C98.0996 15.6963 98.4023 16.4238 98.8027 17.0195C99.2031 17.6055 99.6914 18.0498 100.268 18.3525C100.844 18.6553 101.503 18.8066 102.245 18.8066C102.987 18.8066 103.646 18.6553 104.223 18.3525C104.799 18.0498 105.282 17.6055 105.673 17.0195C106.063 16.4238 106.361 15.6963 106.566 14.8369C106.771 13.9678 106.874 12.9717 106.874 11.8486ZM114.477 0.671875H122.431C124.062 0.671875 125.463 0.916016 126.635 1.4043C127.816 1.89258 128.725 2.61523 129.359 3.57227C129.994 4.5293 130.312 5.70605 130.312 7.10254C130.312 8.24512 130.116 9.22656 129.726 10.0469C129.345 10.8574 128.803 11.5361 128.1 12.083C127.406 12.6201 126.591 13.0498 125.653 13.3721L124.262 14.1045H117.348L117.318 10.6768H122.46C123.231 10.6768 123.871 10.54 124.379 10.2666C124.887 9.99316 125.268 9.6123 125.521 9.12402C125.785 8.63574 125.917 8.06934 125.917 7.4248C125.917 6.74121 125.79 6.15039 125.536 5.65234C125.282 5.1543 124.896 4.77344 124.379 4.50977C123.861 4.24609 123.212 4.11426 122.431 4.11426H118.871V22H114.477V0.671875ZM126.4 22L121.537 12.4932L126.181 12.4639L131.103 21.7949V22H126.4ZM147.406 18.5723V22H136.669V18.5723H147.406ZM138.09 0.671875V22H133.695V0.671875H138.09ZM156.474 22H151.83L151.859 18.5723H156.474C157.626 18.5723 158.598 18.3135 159.389 17.7959C160.18 17.2686 160.775 16.502 161.176 15.4961C161.586 14.4902 161.791 13.2744 161.791 11.8486V10.8086C161.791 9.71484 161.674 8.75293 161.439 7.92285C161.215 7.09277 160.878 6.39453 160.429 5.82812C159.979 5.26172 159.428 4.83691 158.773 4.55371C158.119 4.26074 157.367 4.11426 156.518 4.11426H151.742V0.671875H156.518C157.943 0.671875 159.247 0.916016 160.429 1.4043C161.62 1.88281 162.65 2.57129 163.52 3.46973C164.389 4.36816 165.058 5.44238 165.526 6.69238C166.005 7.93262 166.244 9.31445 166.244 10.8379V11.8486C166.244 13.3623 166.005 14.7441 165.526 15.9941C165.058 17.2441 164.389 18.3184 163.52 19.2168C162.66 20.1055 161.63 20.7939 160.429 21.2822C159.237 21.7607 157.919 22 156.474 22ZM154.32 0.671875V22H149.926V0.671875H154.32ZM189.271 14.9248H193.651C193.563 16.3604 193.168 17.6348 192.465 18.748C191.771 19.8613 190.8 20.7305 189.55 21.3555C188.31 21.9805 186.815 22.293 185.067 22.293C183.7 22.293 182.475 22.0586 181.391 21.5898C180.307 21.1113 179.379 20.4277 178.607 19.5391C177.846 18.6504 177.265 17.5762 176.864 16.3164C176.464 15.0566 176.264 13.6455 176.264 12.083V10.6035C176.264 9.04102 176.469 7.62988 176.879 6.37012C177.299 5.10059 177.895 4.02148 178.666 3.13281C179.447 2.24414 180.38 1.56055 181.464 1.08203C182.548 0.603516 183.759 0.364258 185.097 0.364258C186.874 0.364258 188.373 0.686523 189.594 1.33105C190.824 1.97559 191.776 2.86426 192.45 3.99707C193.134 5.12988 193.544 6.41895 193.681 7.86426H189.286C189.237 7.00488 189.066 6.27734 188.773 5.68164C188.48 5.07617 188.036 4.62207 187.44 4.31934C186.854 4.00684 186.073 3.85059 185.097 3.85059C184.364 3.85059 183.725 3.9873 183.178 4.26074C182.631 4.53418 182.172 4.94922 181.801 5.50586C181.43 6.0625 181.151 6.76562 180.966 7.61523C180.79 8.45508 180.702 9.44141 180.702 10.5742V12.083C180.702 13.1865 180.785 14.1582 180.951 14.998C181.117 15.8281 181.371 16.5312 181.713 17.1074C182.064 17.6738 182.514 18.1035 183.061 18.3965C183.617 18.6797 184.286 18.8213 185.067 18.8213C185.985 18.8213 186.742 18.6748 187.338 18.3818C187.934 18.0889 188.388 17.6543 188.7 17.0781C189.022 16.502 189.213 15.7842 189.271 14.9248ZM208.314 0.671875H212.694V14.7637C212.694 16.4043 212.343 17.7861 211.64 18.9092C210.946 20.0322 209.984 20.877 208.754 21.4434C207.533 22.0098 206.127 22.293 204.535 22.293C202.943 22.293 201.527 22.0098 200.287 21.4434C199.057 20.877 198.09 20.0322 197.387 18.9092C196.693 17.7861 196.347 16.4043 196.347 14.7637V0.671875H200.741V14.7637C200.741 15.7207 200.893 16.502 201.195 17.1074C201.498 17.7129 201.933 18.1572 202.499 18.4404C203.075 18.7236 203.754 18.8652 204.535 18.8652C205.336 18.8652 206.015 18.7236 206.571 18.4404C207.138 18.1572 207.567 17.7129 207.86 17.1074C208.163 16.502 208.314 15.7207 208.314 14.7637V0.671875ZM224.618 14.3975H219.184V10.9697H224.618C225.458 10.9697 226.142 10.833 226.669 10.5596C227.196 10.2764 227.582 9.88574 227.826 9.3877C228.07 8.88965 228.192 8.32812 228.192 7.70312C228.192 7.06836 228.07 6.47754 227.826 5.93066C227.582 5.38379 227.196 4.94434 226.669 4.6123C226.142 4.28027 225.458 4.11426 224.618 4.11426H220.707V22H216.312V0.671875H224.618C226.288 0.671875 227.719 0.974609 228.91 1.58008C230.111 2.17578 231.029 3.00098 231.664 4.05566C232.299 5.11035 232.616 6.31641 232.616 7.67383C232.616 9.05078 232.299 10.2422 231.664 11.248C231.029 12.2539 230.111 13.0303 228.91 13.5771C227.719 14.124 226.288 14.3975 224.618 14.3975ZM254.706 18.8359L260.478 23.4062L257.709 25.8086L252.025 21.2383L254.706 18.8359ZM260.624 10.8379V11.8486C260.624 13.4697 260.404 14.9248 259.965 16.2139C259.535 17.5029 258.915 18.6016 258.104 19.5098C257.294 20.4082 256.337 21.0967 255.233 21.5752C254.13 22.0537 252.904 22.293 251.557 22.293C250.219 22.293 248.993 22.0537 247.88 21.5752C246.767 21.0967 245.805 20.4082 244.994 19.5098C244.184 18.6016 243.554 17.5029 243.104 16.2139C242.665 14.9248 242.445 13.4697 242.445 11.8486V10.8379C242.445 9.20703 242.665 7.75195 243.104 6.47266C243.554 5.18359 244.179 4.08496 244.979 3.17676C245.78 2.26855 246.737 1.5752 247.851 1.09668C248.964 0.618164 250.189 0.378906 251.527 0.378906C252.875 0.378906 254.101 0.618164 255.204 1.09668C256.317 1.5752 257.279 2.26855 258.09 3.17676C258.9 4.08496 259.525 5.18359 259.965 6.47266C260.404 7.75195 260.624 9.20703 260.624 10.8379ZM256.186 11.8486V10.8086C256.186 9.67578 256.078 8.67969 255.863 7.82031C255.658 6.96094 255.355 6.23828 254.955 5.65234C254.564 5.06641 254.081 4.62695 253.505 4.33398C252.929 4.03125 252.27 3.87988 251.527 3.87988C250.785 3.87988 250.126 4.03125 249.55 4.33398C248.974 4.62695 248.49 5.06641 248.1 5.65234C247.709 6.23828 247.411 6.96094 247.206 7.82031C247.001 8.67969 246.898 9.67578 246.898 10.8086V11.8486C246.898 12.9717 247.001 13.9678 247.206 14.8369C247.411 15.6963 247.709 16.4238 248.1 17.0195C248.5 17.6055 248.988 18.0498 249.564 18.3525C250.15 18.6553 250.814 18.8066 251.557 18.8066C252.299 18.8066 252.953 18.6553 253.52 18.3525C254.096 18.0498 254.579 17.6055 254.97 17.0195C255.37 16.4238 255.673 15.6963 255.878 14.8369C256.083 13.9678 256.186 12.9717 256.186 11.8486ZM272.475 4.31934L266.674 22H262.001L269.926 0.671875H272.899L272.475 4.31934ZM277.294 22L271.479 4.31934L271.01 0.671875H274.013L281.981 22H277.294ZM277.03 14.0605V17.5029H265.766V14.0605H277.03ZM291.679 0.671875V22H287.299V0.671875H291.679ZM298.241 0.671875V4.11426H280.839V0.671875H298.241ZM307.836 4.31934L302.035 22H297.362L305.287 0.671875H308.261L307.836 4.31934ZM312.655 22L306.84 4.31934L306.371 0.671875H309.374L317.343 22H312.655ZM312.392 14.0605V17.5029H301.127V14.0605H312.392ZM319.32 0.671875H327.274C328.905 0.671875 330.307 0.916016 331.479 1.4043C332.66 1.89258 333.568 2.61523 334.203 3.57227C334.838 4.5293 335.155 5.70605 335.155 7.10254C335.155 8.24512 334.96 9.22656 334.569 10.0469C334.188 10.8574 333.646 11.5361 332.943 12.083C332.25 12.6201 331.435 13.0498 330.497 13.3721L329.105 14.1045H322.191L322.162 10.6768H327.304C328.075 10.6768 328.715 10.54 329.223 10.2666C329.73 9.99316 330.111 9.6123 330.365 9.12402C330.629 8.63574 330.761 8.06934 330.761 7.4248C330.761 6.74121 330.634 6.15039 330.38 5.65234C330.126 5.1543 329.74 4.77344 329.223 4.50977C328.705 4.24609 328.056 4.11426 327.274 4.11426H323.715V22H319.32V0.671875ZM331.244 22L326.381 12.4932L331.024 12.4639L335.946 21.7949V22H331.244ZM360.16 18.7041V22H345.57V19.1875L352.47 11.79C353.163 11.0186 353.71 10.3398 354.11 9.75391C354.511 9.1582 354.799 8.62598 354.975 8.15723C355.16 7.67871 355.253 7.22461 355.253 6.79492C355.253 6.15039 355.146 5.59863 354.931 5.13965C354.716 4.6709 354.398 4.30957 353.979 4.05566C353.568 3.80176 353.061 3.6748 352.455 3.6748C351.811 3.6748 351.254 3.83105 350.785 4.14355C350.326 4.45605 349.975 4.89062 349.73 5.44727C349.496 6.00391 349.379 6.63379 349.379 7.33691H345.146C345.146 6.06738 345.448 4.90527 346.054 3.85059C346.659 2.78613 347.514 1.94141 348.617 1.31641C349.721 0.681641 351.029 0.364258 352.543 0.364258C354.037 0.364258 355.297 0.608398 356.322 1.09668C357.357 1.5752 358.139 2.26855 358.666 3.17676C359.203 4.0752 359.472 5.14941 359.472 6.39941C359.472 7.10254 359.359 7.79102 359.135 8.46484C358.91 9.12891 358.588 9.79297 358.168 10.457C357.758 11.1113 357.26 11.7754 356.674 12.4492C356.088 13.123 355.438 13.8213 354.726 14.5439L351.02 18.7041H360.16ZM377.152 9.46094V13.1523C377.152 14.7539 376.981 16.1357 376.64 17.2979C376.298 18.4502 375.805 19.3975 375.16 20.1396C374.525 20.8721 373.769 21.4141 372.89 21.7656C372.011 22.1172 371.034 22.293 369.96 22.293C369.101 22.293 368.3 22.1855 367.558 21.9707C366.815 21.7461 366.146 21.3994 365.551 20.9307C364.965 20.4619 364.457 19.8711 364.027 19.1582C363.607 18.4355 363.285 17.5762 363.061 16.5801C362.836 15.584 362.724 14.4414 362.724 13.1523V9.46094C362.724 7.85938 362.895 6.4873 363.236 5.34473C363.588 4.19238 364.081 3.25 364.716 2.51758C365.36 1.78516 366.122 1.24805 367.001 0.90625C367.88 0.554688 368.856 0.378906 369.931 0.378906C370.79 0.378906 371.586 0.491211 372.318 0.71582C373.061 0.930664 373.729 1.26758 374.325 1.72656C374.921 2.18555 375.429 2.77637 375.849 3.49902C376.269 4.21191 376.591 5.06641 376.815 6.0625C377.04 7.04883 377.152 8.18164 377.152 9.46094ZM372.919 13.709V8.88965C372.919 8.11816 372.875 7.44434 372.787 6.86816C372.709 6.29199 372.587 5.80371 372.421 5.40332C372.255 4.99316 372.05 4.66113 371.806 4.40723C371.562 4.15332 371.283 3.96777 370.971 3.85059C370.658 3.7334 370.312 3.6748 369.931 3.6748C369.452 3.6748 369.027 3.76758 368.656 3.95312C368.295 4.13867 367.987 4.43652 367.733 4.84668C367.479 5.24707 367.284 5.78418 367.147 6.45801C367.021 7.12207 366.957 7.93262 366.957 8.88965V13.709C366.957 14.4805 366.996 15.1592 367.074 15.7451C367.162 16.3311 367.289 16.834 367.455 17.2539C367.631 17.6641 367.836 18.001 368.07 18.2646C368.314 18.5186 368.593 18.7041 368.905 18.8213C369.228 18.9385 369.579 18.9971 369.96 18.9971C370.429 18.9971 370.844 18.9043 371.205 18.7188C371.576 18.5234 371.889 18.2207 372.143 17.8105C372.406 17.3906 372.602 16.8438 372.729 16.1699C372.855 15.4961 372.919 14.6758 372.919 13.709ZM394.613 18.7041V22H380.023V19.1875L386.923 11.79C387.616 11.0186 388.163 10.3398 388.563 9.75391C388.964 9.1582 389.252 8.62598 389.428 8.15723C389.613 7.67871 389.706 7.22461 389.706 6.79492C389.706 6.15039 389.599 5.59863 389.384 5.13965C389.169 4.6709 388.852 4.30957 388.432 4.05566C388.021 3.80176 387.514 3.6748 386.908 3.6748C386.264 3.6748 385.707 3.83105 385.238 4.14355C384.779 4.45605 384.428 4.89062 384.184 5.44727C383.949 6.00391 383.832 6.63379 383.832 7.33691H379.599C379.599 6.06738 379.901 4.90527 380.507 3.85059C381.112 2.78613 381.967 1.94141 383.07 1.31641C384.174 0.681641 385.482 0.364258 386.996 0.364258C388.49 0.364258 389.75 0.608398 390.775 1.09668C391.811 1.5752 392.592 2.26855 393.119 3.17676C393.656 4.0752 393.925 5.14941 393.925 6.39941C393.925 7.10254 393.812 7.79102 393.588 8.46484C393.363 9.12891 393.041 9.79297 392.621 10.457C392.211 11.1113 391.713 11.7754 391.127 12.4492C390.541 13.123 389.892 13.8213 389.179 14.5439L385.473 18.7041H394.613ZM411.84 18.7041V22H397.25V19.1875L404.149 11.79C404.843 11.0186 405.39 10.3398 405.79 9.75391C406.19 9.1582 406.479 8.62598 406.654 8.15723C406.84 7.67871 406.933 7.22461 406.933 6.79492C406.933 6.15039 406.825 5.59863 406.61 5.13965C406.396 4.6709 406.078 4.30957 405.658 4.05566C405.248 3.80176 404.74 3.6748 404.135 3.6748C403.49 3.6748 402.934 3.83105 402.465 4.14355C402.006 4.45605 401.654 4.89062 401.41 5.44727C401.176 6.00391 401.059 6.63379 401.059 7.33691H396.825C396.825 6.06738 397.128 4.90527 397.733 3.85059C398.339 2.78613 399.193 1.94141 400.297 1.31641C401.4 0.681641 402.709 0.364258 404.223 0.364258C405.717 0.364258 406.977 0.608398 408.002 1.09668C409.037 1.5752 409.818 2.26855 410.346 3.17676C410.883 4.0752 411.151 5.14941 411.151 6.39941C411.151 7.10254 411.039 7.79102 410.814 8.46484C410.59 9.12891 410.268 9.79297 409.848 10.457C409.438 11.1113 408.939 11.7754 408.354 12.4492C407.768 13.123 407.118 13.8213 406.405 14.5439L402.699 18.7041H411.84Z" fill="#F7DD43"/>
<path d="M140.287 38.6719H144.008L149.486 54.3311L154.965 38.6719H158.686L150.98 60H147.992L140.287 38.6719ZM138.28 38.6719H141.986L142.66 53.9355V60H138.28V38.6719ZM156.986 38.6719H160.707V60H156.312V53.9355L156.986 38.6719ZM173.495 42.3193L167.694 60H163.021L170.946 38.6719H173.92L173.495 42.3193ZM178.314 60L172.499 42.3193L172.03 38.6719H175.033L183.002 60H178.314ZM178.051 52.0605V55.5029H166.786V52.0605H178.051ZM192.699 38.6719V60H188.319V38.6719H192.699ZM199.262 38.6719V42.1143H181.859V38.6719H199.262ZM213.72 52.9248H218.1C218.012 54.3604 217.616 55.6348 216.913 56.748C216.22 57.8613 215.248 58.7305 213.998 59.3555C212.758 59.9805 211.264 60.293 209.516 60.293C208.148 60.293 206.923 60.0586 205.839 59.5898C204.755 59.1113 203.827 58.4277 203.056 57.5391C202.294 56.6504 201.713 55.5762 201.312 54.3164C200.912 53.0566 200.712 51.6455 200.712 50.083V48.6035C200.712 47.041 200.917 45.6299 201.327 44.3701C201.747 43.1006 202.343 42.0215 203.114 41.1328C203.896 40.2441 204.828 39.5605 205.912 39.082C206.996 38.6035 208.207 38.3643 209.545 38.3643C211.322 38.3643 212.821 38.6865 214.042 39.3311C215.272 39.9756 216.225 40.8643 216.898 41.9971C217.582 43.1299 217.992 44.4189 218.129 45.8643H213.734C213.686 45.0049 213.515 44.2773 213.222 43.6816C212.929 43.0762 212.484 42.6221 211.889 42.3193C211.303 42.0068 210.521 41.8506 209.545 41.8506C208.812 41.8506 208.173 41.9873 207.626 42.2607C207.079 42.5342 206.62 42.9492 206.249 43.5059C205.878 44.0625 205.6 44.7656 205.414 45.6152C205.238 46.4551 205.15 47.4414 205.15 48.5742V50.083C205.15 51.1865 205.233 52.1582 205.399 52.998C205.565 53.8281 205.819 54.5312 206.161 55.1074C206.513 55.6738 206.962 56.1035 207.509 56.3965C208.065 56.6797 208.734 56.8213 209.516 56.8213C210.434 56.8213 211.19 56.6748 211.786 56.3818C212.382 56.0889 212.836 55.6543 213.148 55.0781C213.471 54.502 213.661 53.7842 213.72 52.9248ZM235.209 47.3584V50.7861H224.076V47.3584H235.209ZM225.38 38.6719V60H220.985V38.6719H225.38ZM238.344 38.6719V60H233.964V38.6719H238.344ZM256.479 56.5723V60H245.126V56.5723H256.479ZM246.562 38.6719V60H242.167V38.6719H246.562ZM254.999 47.3584V50.6982H245.126V47.3584H254.999ZM256.464 38.6719V42.1143H245.126V38.6719H256.464ZM270.146 54.4189C270.146 54.0381 270.087 53.6963 269.97 53.3936C269.862 53.0811 269.657 52.7979 269.354 52.5439C269.052 52.2803 268.627 52.0215 268.08 51.7676C267.533 51.5137 266.825 51.25 265.956 50.9766C264.989 50.6641 264.071 50.3125 263.202 49.9219C262.343 49.5312 261.581 49.0771 260.917 48.5596C260.263 48.0322 259.745 47.4219 259.364 46.7285C258.993 46.0352 258.808 45.2295 258.808 44.3115C258.808 43.4229 259.003 42.6172 259.394 41.8945C259.784 41.1621 260.331 40.5371 261.034 40.0195C261.737 39.4922 262.567 39.0869 263.524 38.8037C264.491 38.5205 265.551 38.3789 266.703 38.3789C268.275 38.3789 269.647 38.6621 270.819 39.2285C271.991 39.7949 272.899 40.5713 273.544 41.5576C274.198 42.5439 274.525 43.6719 274.525 44.9414H270.16C270.16 44.3164 270.028 43.7695 269.765 43.3008C269.511 42.8223 269.12 42.4463 268.593 42.1729C268.075 41.8994 267.421 41.7627 266.63 41.7627C265.868 41.7627 265.233 41.8799 264.726 42.1143C264.218 42.3389 263.837 42.6465 263.583 43.0371C263.329 43.418 263.202 43.8477 263.202 44.3262C263.202 44.6875 263.29 45.0146 263.466 45.3076C263.651 45.6006 263.925 45.874 264.286 46.1279C264.647 46.3818 265.092 46.6211 265.619 46.8457C266.146 47.0703 266.757 47.29 267.45 47.5049C268.612 47.8564 269.633 48.252 270.512 48.6914C271.4 49.1309 272.143 49.624 272.738 50.1709C273.334 50.7178 273.783 51.3379 274.086 52.0312C274.389 52.7246 274.54 53.5107 274.54 54.3896C274.54 55.3174 274.359 56.1475 273.998 56.8799C273.637 57.6123 273.114 58.2324 272.431 58.7402C271.747 59.248 270.932 59.6338 269.984 59.8975C269.037 60.1611 267.978 60.293 266.806 60.293C265.751 60.293 264.711 60.1562 263.686 59.8828C262.66 59.5996 261.728 59.1748 260.888 58.6084C260.058 58.042 259.394 57.3193 258.896 56.4404C258.397 55.5615 258.148 54.5215 258.148 53.3203H262.558C262.558 53.9844 262.66 54.5459 262.865 55.0049C263.07 55.4639 263.358 55.835 263.729 56.1182C264.11 56.4014 264.56 56.6064 265.077 56.7334C265.604 56.8604 266.181 56.9238 266.806 56.9238C267.567 56.9238 268.192 56.8164 268.681 56.6016C269.179 56.3867 269.545 56.0889 269.779 55.708C270.023 55.3271 270.146 54.8975 270.146 54.4189Z" fill="url(#paint1_linear_175_1883)"/>
<defs>
<linearGradient id="paint0_linear_175_1883" x1="206" y1="-7" x2="206" y2="69" gradientUnits="userSpaceOnUse">
<stop stop-color="white"/>
<stop offset="1" stop-color="#D9D9D9" stop-opacity="0.8"/>
</linearGradient>
<linearGradient id="paint1_linear_175_1883" x1="206" y1="-7" x2="206" y2="69" gradientUnits="userSpaceOnUse">
<stop stop-color="white"/>
<stop offset="1" stop-color="#D9D9D9" stop-opacity="0.8"/>
</linearGradient>
</defs>
</svg>


