<svg width="244" height="61" viewBox="0 0 244 61" fill="none" xmlns="http://www.w3.org/2000/svg">
<path d="M6.80469 18.6162L11.0527 0.671875H13.4258L13.9678 3.66016L9.44141 22H6.89258L6.80469 18.6162ZM4.62207 0.671875L8.1377 18.6162L7.84473 22H5.00293L0.271484 0.671875H4.62207ZM17.7031 18.543L21.1748 0.671875H25.5254L20.8086 22H17.9668L17.7031 18.543ZM14.7588 0.671875L19.0361 18.6895L18.9189 22H16.3701L11.8145 3.64551L12.4004 0.671875H14.7588ZM45.4326 10.8379V11.8486C45.4326 13.4697 45.2129 14.9248 44.7734 16.2139C44.334 17.5029 43.7139 18.6016 42.9131 19.5098C42.1123 20.4082 41.1553 21.0967 40.042 21.5752C38.9385 22.0537 37.7129 22.293 36.3652 22.293C35.0273 22.293 33.8018 22.0537 32.6885 21.5752C31.585 21.0967 30.6279 20.4082 29.8174 19.5098C29.0068 18.6016 28.377 17.5029 27.9277 16.2139C27.4883 14.9248 27.2686 13.4697 27.2686 11.8486V10.8379C27.2686 9.20703 27.4883 7.75195 27.9277 6.47266C28.3672 5.18359 28.9873 4.08496 29.7881 3.17676C30.5986 2.26855 31.5557 1.5752 32.6592 1.09668C33.7725 0.618164 34.998 0.378906 36.3359 0.378906C37.6836 0.378906 38.9092 0.618164 40.0127 1.09668C41.126 1.5752 42.083 2.26855 42.8838 3.17676C43.6943 4.08496 44.3193 5.18359 44.7588 6.47266C45.208 7.75195 45.4326 9.20703 45.4326 10.8379ZM40.9941 11.8486V10.8086C40.9941 9.67578 40.8916 8.67969 40.6865 7.82031C40.4814 6.96094 40.1787 6.23828 39.7783 5.65234C39.3779 5.06641 38.8896 4.62695 38.3135 4.33398C37.7373 4.03125 37.0781 3.87988 36.3359 3.87988C35.5938 3.87988 34.9346 4.03125 34.3584 4.33398C33.792 4.62695 33.3086 5.06641 32.9082 5.65234C32.5176 6.23828 32.2197 6.96094 32.0146 7.82031C31.8096 8.67969 31.707 9.67578 31.707 10.8086V11.8486C31.707 12.9717 31.8096 13.9678 32.0146 14.8369C32.2197 15.6963 32.5225 16.4238 32.9229 17.0195C33.3232 17.6055 33.8115 18.0498 34.3877 18.3525C34.9639 18.6553 35.623 18.8066 36.3652 18.8066C37.1074 18.8066 37.7666 18.6553 38.3428 18.3525C38.9189 18.0498 39.4023 17.6055 39.793 17.0195C40.1836 16.4238 40.4814 15.6963 40.6865 14.8369C40.8916 13.9678 40.9941 12.9717 40.9941 11.8486ZM48.5967 0.671875H56.5508C58.1816 0.671875 59.583 0.916016 60.7549 1.4043C61.9365 1.89258 62.8447 2.61523 63.4795 3.57227C64.1143 4.5293 64.4316 5.70605 64.4316 7.10254C64.4316 8.24512 64.2363 9.22656 63.8457 10.0469C63.4648 10.8574 62.9229 11.5361 62.2197 12.083C61.5264 12.6201 60.7109 13.0498 59.7734 13.3721L58.3818 14.1045H51.4678L51.4385 10.6768H56.5801C57.3516 10.6768 57.9912 10.54 58.499 10.2666C59.0068 9.99316 59.3877 9.6123 59.6416 9.12402C59.9053 8.63574 60.0371 8.06934 60.0371 7.4248C60.0371 6.74121 59.9102 6.15039 59.6562 5.65234C59.4023 5.1543 59.0166 4.77344 58.499 4.50977C57.9814 4.24609 57.332 4.11426 56.5508 4.11426H52.9912V22H48.5967V0.671875ZM60.5205 22L55.6572 12.4932L60.3008 12.4639L65.2227 21.7949V22H60.5205ZM81.5264 18.5723V22H70.7891V18.5723H81.5264ZM72.21 0.671875V22H67.8154V0.671875H72.21ZM90.5938 22H85.9502L85.9795 18.5723H90.5938C91.7461 18.5723 92.7178 18.3135 93.5088 17.7959C94.2998 17.2686 94.8955 16.502 95.2959 15.4961C95.7061 14.4902 95.9111 13.2744 95.9111 11.8486V10.8086C95.9111 9.71484 95.7939 8.75293 95.5596 7.92285C95.335 7.09277 94.998 6.39453 94.5488 5.82812C94.0996 5.26172 93.5479 4.83691 92.8936 4.55371C92.2393 4.26074 91.4873 4.11426 90.6377 4.11426H85.8623V0.671875H90.6377C92.0635 0.671875 93.3672 0.916016 94.5488 1.4043C95.7402 1.88281 96.7705 2.57129 97.6396 3.46973C98.5088 4.36816 99.1777 5.44238 99.6465 6.69238C100.125 7.93262 100.364 9.31445 100.364 10.8379V11.8486C100.364 13.3623 100.125 14.7441 99.6465 15.9941C99.1777 17.2441 98.5088 18.3184 97.6396 19.2168C96.7803 20.1055 95.75 20.7939 94.5488 21.2822C93.3574 21.7607 92.0391 22 90.5938 22ZM88.4404 0.671875V22H84.0459V0.671875H88.4404ZM123.392 14.9248H127.771C127.684 16.3604 127.288 17.6348 126.585 18.748C125.892 19.8613 124.92 20.7305 123.67 21.3555C122.43 21.9805 120.936 22.293 119.188 22.293C117.82 22.293 116.595 22.0586 115.511 21.5898C114.427 21.1113 113.499 20.4277 112.728 19.5391C111.966 18.6504 111.385 17.5762 110.984 16.3164C110.584 15.0566 110.384 13.6455 110.384 12.083V10.6035C110.384 9.04102 110.589 7.62988 110.999 6.37012C111.419 5.10059 112.015 4.02148 112.786 3.13281C113.567 2.24414 114.5 1.56055 115.584 1.08203C116.668 0.603516 117.879 0.364258 119.217 0.364258C120.994 0.364258 122.493 0.686523 123.714 1.33105C124.944 1.97559 125.896 2.86426 126.57 3.99707C127.254 5.12988 127.664 6.41895 127.801 7.86426H123.406C123.357 7.00488 123.187 6.27734 122.894 5.68164C122.601 5.07617 122.156 4.62207 121.561 4.31934C120.975 4.00684 120.193 3.85059 119.217 3.85059C118.484 3.85059 117.845 3.9873 117.298 4.26074C116.751 4.53418 116.292 4.94922 115.921 5.50586C115.55 6.0625 115.271 6.76562 115.086 7.61523C114.91 8.45508 114.822 9.44141 114.822 10.5742V12.083C114.822 13.1865 114.905 14.1582 115.071 14.998C115.237 15.8281 115.491 16.5312 115.833 17.1074C116.185 17.6738 116.634 18.1035 117.181 18.3965C117.737 18.6797 118.406 18.8213 119.188 18.8213C120.105 18.8213 120.862 18.6748 121.458 18.3818C122.054 18.0889 122.508 17.6543 122.82 17.0781C123.143 16.502 123.333 15.7842 123.392 14.9248ZM142.435 0.671875H146.814V14.7637C146.814 16.4043 146.463 17.7861 145.76 18.9092C145.066 20.0322 144.104 20.877 142.874 21.4434C141.653 22.0098 140.247 22.293 138.655 22.293C137.063 22.293 135.647 22.0098 134.407 21.4434C133.177 20.877 132.21 20.0322 131.507 18.9092C130.813 17.7861 130.467 16.4043 130.467 14.7637V0.671875H134.861V14.7637C134.861 15.7207 135.013 16.502 135.315 17.1074C135.618 17.7129 136.053 18.1572 136.619 18.4404C137.195 18.7236 137.874 18.8652 138.655 18.8652C139.456 18.8652 140.135 18.7236 140.691 18.4404C141.258 18.1572 141.688 17.7129 141.98 17.1074C142.283 16.502 142.435 15.7207 142.435 14.7637V0.671875ZM158.738 14.3975H153.304V10.9697H158.738C159.578 10.9697 160.262 10.833 160.789 10.5596C161.316 10.2764 161.702 9.88574 161.946 9.3877C162.19 8.88965 162.312 8.32812 162.312 7.70312C162.312 7.06836 162.19 6.47754 161.946 5.93066C161.702 5.38379 161.316 4.94434 160.789 4.6123C160.262 4.28027 159.578 4.11426 158.738 4.11426H154.827V22H150.433V0.671875H158.738C160.408 0.671875 161.839 0.974609 163.03 1.58008C164.231 2.17578 165.149 3.00098 165.784 4.05566C166.419 5.11035 166.736 6.31641 166.736 7.67383C166.736 9.05078 166.419 10.2422 165.784 11.248C165.149 12.2539 164.231 13.0303 163.03 13.5771C161.839 14.124 160.408 14.3975 158.738 14.3975ZM191.39 18.7041V22H176.8V19.1875L183.699 11.79C184.393 11.0186 184.939 10.3398 185.34 9.75391C185.74 9.1582 186.028 8.62598 186.204 8.15723C186.39 7.67871 186.482 7.22461 186.482 6.79492C186.482 6.15039 186.375 5.59863 186.16 5.13965C185.945 4.6709 185.628 4.30957 185.208 4.05566C184.798 3.80176 184.29 3.6748 183.685 3.6748C183.04 3.6748 182.483 3.83105 182.015 4.14355C181.556 4.45605 181.204 4.89062 180.96 5.44727C180.726 6.00391 180.608 6.63379 180.608 7.33691H176.375C176.375 6.06738 176.678 4.90527 177.283 3.85059C177.889 2.78613 178.743 1.94141 179.847 1.31641C180.95 0.681641 182.259 0.364258 183.772 0.364258C185.267 0.364258 186.526 0.608398 187.552 1.09668C188.587 1.5752 189.368 2.26855 189.896 3.17676C190.433 4.0752 190.701 5.14941 190.701 6.39941C190.701 7.10254 190.589 7.79102 190.364 8.46484C190.14 9.12891 189.817 9.79297 189.397 10.457C188.987 11.1113 188.489 11.7754 187.903 12.4492C187.317 13.123 186.668 13.8213 185.955 14.5439L182.249 18.7041H191.39ZM208.382 9.46094V13.1523C208.382 14.7539 208.211 16.1357 207.869 17.2979C207.527 18.4502 207.034 19.3975 206.39 20.1396C205.755 20.8721 204.998 21.4141 204.119 21.7656C203.24 22.1172 202.264 22.293 201.189 22.293C200.33 22.293 199.529 22.1855 198.787 21.9707C198.045 21.7461 197.376 21.3994 196.78 20.9307C196.194 20.4619 195.687 19.8711 195.257 19.1582C194.837 18.4355 194.515 17.5762 194.29 16.5801C194.065 15.584 193.953 14.4414 193.953 13.1523V9.46094C193.953 7.85938 194.124 6.4873 194.466 5.34473C194.817 4.19238 195.311 3.25 195.945 2.51758C196.59 1.78516 197.352 1.24805 198.23 0.90625C199.109 0.554688 200.086 0.378906 201.16 0.378906C202.02 0.378906 202.815 0.491211 203.548 0.71582C204.29 0.930664 204.959 1.26758 205.555 1.72656C206.15 2.18555 206.658 2.77637 207.078 3.49902C207.498 4.21191 207.82 5.06641 208.045 6.0625C208.27 7.04883 208.382 8.18164 208.382 9.46094ZM204.148 13.709V8.88965C204.148 8.11816 204.104 7.44434 204.017 6.86816C203.938 6.29199 203.816 5.80371 203.65 5.40332C203.484 4.99316 203.279 4.66113 203.035 4.40723C202.791 4.15332 202.513 3.96777 202.2 3.85059C201.888 3.7334 201.541 3.6748 201.16 3.6748C200.682 3.6748 200.257 3.76758 199.886 3.95312C199.524 4.13867 199.217 4.43652 198.963 4.84668C198.709 5.24707 198.514 5.78418 198.377 6.45801C198.25 7.12207 198.187 7.93262 198.187 8.88965V13.709C198.187 14.4805 198.226 15.1592 198.304 15.7451C198.392 16.3311 198.519 16.834 198.685 17.2539C198.86 17.6641 199.065 18.001 199.3 18.2646C199.544 18.5186 199.822 18.7041 200.135 18.8213C200.457 18.9385 200.809 18.9971 201.189 18.9971C201.658 18.9971 202.073 18.9043 202.435 18.7188C202.806 18.5234 203.118 18.2207 203.372 17.8105C203.636 17.3906 203.831 16.8438 203.958 16.1699C204.085 15.4961 204.148 14.6758 204.148 13.709ZM225.843 18.7041V22H211.253V19.1875L218.152 11.79C218.846 11.0186 219.393 10.3398 219.793 9.75391C220.193 9.1582 220.481 8.62598 220.657 8.15723C220.843 7.67871 220.936 7.22461 220.936 6.79492C220.936 6.15039 220.828 5.59863 220.613 5.13965C220.398 4.6709 220.081 4.30957 219.661 4.05566C219.251 3.80176 218.743 3.6748 218.138 3.6748C217.493 3.6748 216.937 3.83105 216.468 4.14355C216.009 4.45605 215.657 4.89062 215.413 5.44727C215.179 6.00391 215.062 6.63379 215.062 7.33691H210.828C210.828 6.06738 211.131 4.90527 211.736 3.85059C212.342 2.78613 213.196 1.94141 214.3 1.31641C215.403 0.681641 216.712 0.364258 218.226 0.364258C219.72 0.364258 220.979 0.608398 222.005 1.09668C223.04 1.5752 223.821 2.26855 224.349 3.17676C224.886 4.0752 225.154 5.14941 225.154 6.39941C225.154 7.10254 225.042 7.79102 224.817 8.46484C224.593 9.12891 224.271 9.79297 223.851 10.457C223.44 11.1113 222.942 11.7754 222.356 12.4492C221.771 13.123 221.121 13.8213 220.408 14.5439L216.702 18.7041H225.843ZM243.069 18.7041V22H228.479V19.1875L235.379 11.79C236.072 11.0186 236.619 10.3398 237.02 9.75391C237.42 9.1582 237.708 8.62598 237.884 8.15723C238.069 7.67871 238.162 7.22461 238.162 6.79492C238.162 6.15039 238.055 5.59863 237.84 5.13965C237.625 4.6709 237.308 4.30957 236.888 4.05566C236.478 3.80176 235.97 3.6748 235.364 3.6748C234.72 3.6748 234.163 3.83105 233.694 4.14355C233.235 4.45605 232.884 4.89062 232.64 5.44727C232.405 6.00391 232.288 6.63379 232.288 7.33691H228.055C228.055 6.06738 228.357 4.90527 228.963 3.85059C229.568 2.78613 230.423 1.94141 231.526 1.31641C232.63 0.681641 233.938 0.364258 235.452 0.364258C236.946 0.364258 238.206 0.608398 239.231 1.09668C240.267 1.5752 241.048 2.26855 241.575 3.17676C242.112 4.0752 242.381 5.14941 242.381 6.39941C242.381 7.10254 242.269 7.79102 242.044 8.46484C241.819 9.12891 241.497 9.79297 241.077 10.457C240.667 11.1113 240.169 11.7754 239.583 12.4492C238.997 13.123 238.348 13.8213 237.635 14.5439L233.929 18.7041H243.069Z" fill="url(#paint0_linear_175_1883)"/>
<path d="M6.80469 18.6162L11.0527 0.671875H13.4258L13.9678 3.66016L9.44141 22H6.89258L6.80469 18.6162ZM4.62207 0.671875L8.1377 18.6162L7.84473 22H5.00293L0.271484 0.671875H4.62207ZM17.7031 18.543L21.1748 0.671875H25.5254L20.8086 22H17.9668L17.7031 18.543ZM14.7588 0.671875L19.0361 18.6895L18.9189 22H16.3701L11.8145 3.64551L12.4004 0.671875H14.7588ZM45.4326 10.8379V11.8486C45.4326 13.4697 45.2129 14.9248 44.7734 16.2139C44.334 17.5029 43.7139 18.6016 42.9131 19.5098C42.1123 20.4082 41.1553 21.0967 40.042 21.5752C38.9385 22.0537 37.7129 22.293 36.3652 22.293C35.0273 22.293 33.8018 22.0537 32.6885 21.5752C31.585 21.0967 30.6279 20.4082 29.8174 19.5098C29.0068 18.6016 28.377 17.5029 27.9277 16.2139C27.4883 14.9248 27.2686 13.4697 27.2686 11.8486V10.8379C27.2686 9.20703 27.4883 7.75195 27.9277 6.47266C28.3672 5.18359 28.9873 4.08496 29.7881 3.17676C30.5986 2.26855 31.5557 1.5752 32.6592 1.09668C33.7725 0.618164 34.998 0.378906 36.3359 0.378906C37.6836 0.378906 38.9092 0.618164 40.0127 1.09668C41.126 1.5752 42.083 2.26855 42.8838 3.17676C43.6943 4.08496 44.3193 5.18359 44.7588 6.47266C45.208 7.75195 45.4326 9.20703 45.4326 10.8379ZM40.9941 11.8486V10.8086C40.9941 9.67578 40.8916 8.67969 40.6865 7.82031C40.4814 6.96094 40.1787 6.23828 39.7783 5.65234C39.3779 5.06641 38.8896 4.62695 38.3135 4.33398C37.7373 4.03125 37.0781 3.87988 36.3359 3.87988C35.5938 3.87988 34.9346 4.03125 34.3584 4.33398C33.792 4.62695 33.3086 5.06641 32.9082 5.65234C32.5176 6.23828 32.2197 6.96094 32.0146 7.82031C31.8096 8.67969 31.707 9.67578 31.707 10.8086V11.8486C31.707 12.9717 31.8096 13.9678 32.0146 14.8369C32.2197 15.6963 32.5225 16.4238 32.9229 17.0195C33.3232 17.6055 33.8115 18.0498 34.3877 18.3525C34.9639 18.6553 35.623 18.8066 36.3652 18.8066C37.1074 18.8066 37.7666 18.6553 38.3428 18.3525C38.9189 18.0498 39.4023 17.6055 39.793 17.0195C40.1836 16.4238 40.4814 15.6963 40.6865 14.8369C40.8916 13.9678 40.9941 12.9717 40.9941 11.8486ZM48.5967 0.671875H56.5508C58.1816 0.671875 59.583 0.916016 60.7549 1.4043C61.9365 1.89258 62.8447 2.61523 63.4795 3.57227C64.1143 4.5293 64.4316 5.70605 64.4316 7.10254C64.4316 8.24512 64.2363 9.22656 63.8457 10.0469C63.4648 10.8574 62.9229 11.5361 62.2197 12.083C61.5264 12.6201 60.7109 13.0498 59.7734 13.3721L58.3818 14.1045H51.4678L51.4385 10.6768H56.5801C57.3516 10.6768 57.9912 10.54 58.499 10.2666C59.0068 9.99316 59.3877 9.6123 59.6416 9.12402C59.9053 8.63574 60.0371 8.06934 60.0371 7.4248C60.0371 6.74121 59.9102 6.15039 59.6562 5.65234C59.4023 5.1543 59.0166 4.77344 58.499 4.50977C57.9814 4.24609 57.332 4.11426 56.5508 4.11426H52.9912V22H48.5967V0.671875ZM60.5205 22L55.6572 12.4932L60.3008 12.4639L65.2227 21.7949V22H60.5205ZM81.5264 18.5723V22H70.7891V18.5723H81.5264ZM72.21 0.671875V22H67.8154V0.671875H72.21ZM90.5938 22H85.9502L85.9795 18.5723H90.5938C91.7461 18.5723 92.7178 18.3135 93.5088 17.7959C94.2998 17.2686 94.8955 16.502 95.2959 15.4961C95.7061 14.4902 95.9111 13.2744 95.9111 11.8486V10.8086C95.9111 9.71484 95.7939 8.75293 95.5596 7.92285C95.335 7.09277 94.998 6.39453 94.5488 5.82812C94.0996 5.26172 93.5479 4.83691 92.8936 4.55371C92.2393 4.26074 91.4873 4.11426 90.6377 4.11426H85.8623V0.671875H90.6377C92.0635 0.671875 93.3672 0.916016 94.5488 1.4043C95.7402 1.88281 96.7705 2.57129 97.6396 3.46973C98.5088 4.36816 99.1777 5.44238 99.6465 6.69238C100.125 7.93262 100.364 9.31445 100.364 10.8379V11.8486C100.364 13.3623 100.125 14.7441 99.6465 15.9941C99.1777 17.2441 98.5088 18.3184 97.6396 19.2168C96.7803 20.1055 95.75 20.7939 94.5488 21.2822C93.3574 21.7607 92.0391 22 90.5938 22ZM88.4404 0.671875V22H84.0459V0.671875H88.4404ZM123.392 14.9248H127.771C127.684 16.3604 127.288 17.6348 126.585 18.748C125.892 19.8613 124.92 20.7305 123.67 21.3555C122.43 21.9805 120.936 22.293 119.188 22.293C117.82 22.293 116.595 22.0586 115.511 21.5898C114.427 21.1113 113.499 20.4277 112.728 19.5391C111.966 18.6504 111.385 17.5762 110.984 16.3164C110.584 15.0566 110.384 13.6455 110.384 12.083V10.6035C110.384 9.04102 110.589 7.62988 110.999 6.37012C111.419 5.10059 112.015 4.02148 112.786 3.13281C113.567 2.24414 114.5 1.56055 115.584 1.08203C116.668 0.603516 117.879 0.364258 119.217 0.364258C120.994 0.364258 122.493 0.686523 123.714 1.33105C124.944 1.97559 125.896 2.86426 126.57 3.99707C127.254 5.12988 127.664 6.41895 127.801 7.86426H123.406C123.357 7.00488 123.187 6.27734 122.894 5.68164C122.601 5.07617 122.156 4.62207 121.561 4.31934C120.975 4.00684 120.193 3.85059 119.217 3.85059C118.484 3.85059 117.845 3.9873 117.298 4.26074C116.751 4.53418 116.292 4.94922 115.921 5.50586C115.55 6.0625 115.271 6.76562 115.086 7.61523C114.91 8.45508 114.822 9.44141 114.822 10.5742V12.083C114.822 13.1865 114.905 14.1582 115.071 14.998C115.237 15.8281 115.491 16.5312 115.833 17.1074C116.185 17.6738 116.634 18.1035 117.181 18.3965C117.737 18.6797 118.406 18.8213 119.188 18.8213C120.105 18.8213 120.862 18.6748 121.458 18.3818C122.054 18.0889 122.508 17.6543 122.82 17.0781C123.143 16.502 123.333 15.7842 123.392 14.9248ZM142.435 0.671875H146.814V14.7637C146.814 16.4043 146.463 17.7861 145.76 18.9092C145.066 20.0322 144.104 20.877 142.874 21.4434C141.653 22.0098 140.247 22.293 138.655 22.293C137.063 22.293 135.647 22.0098 134.407 21.4434C133.177 20.877 132.21 20.0322 131.507 18.9092C130.813 17.7861 130.467 16.4043 130.467 14.7637V0.671875H134.861V14.7637C134.861 15.7207 135.013 16.502 135.315 17.1074C135.618 17.7129 136.053 18.1572 136.619 18.4404C137.195 18.7236 137.874 18.8652 138.655 18.8652C139.456 18.8652 140.135 18.7236 140.691 18.4404C141.258 18.1572 141.688 17.7129 141.98 17.1074C142.283 16.502 142.435 15.7207 142.435 14.7637V0.671875ZM158.738 14.3975H153.304V10.9697H158.738C159.578 10.9697 160.262 10.833 160.789 10.5596C161.316 10.2764 161.702 9.88574 161.946 9.3877C162.19 8.88965 162.312 8.32812 162.312 7.70312C162.312 7.06836 162.19 6.47754 161.946 5.93066C161.702 5.38379 161.316 4.94434 160.789 4.6123C160.262 4.28027 159.578 4.11426 158.738 4.11426H154.827V22H150.433V0.671875H158.738C160.408 0.671875 161.839 0.974609 163.03 1.58008C164.231 2.17578 165.149 3.00098 165.784 4.05566C166.419 5.11035 166.736 6.31641 166.736 7.67383C166.736 9.05078 166.419 10.2422 165.784 11.248C165.149 12.2539 164.231 13.0303 163.03 13.5771C161.839 14.124 160.408 14.3975 158.738 14.3975ZM191.39 18.7041V22H176.8V19.1875L183.699 11.79C184.393 11.0186 184.939 10.3398 185.34 9.75391C185.74 9.1582 186.028 8.62598 186.204 8.15723C186.39 7.67871 186.482 7.22461 186.482 6.79492C186.482 6.15039 186.375 5.59863 186.16 5.13965C185.945 4.6709 185.628 4.30957 185.208 4.05566C184.798 3.80176 184.29 3.6748 183.685 3.6748C183.04 3.6748 182.483 3.83105 182.015 4.14355C181.556 4.45605 181.204 4.89062 180.96 5.44727C180.726 6.00391 180.608 6.63379 180.608 7.33691H176.375C176.375 6.06738 176.678 4.90527 177.283 3.85059C177.889 2.78613 178.743 1.94141 179.847 1.31641C180.95 0.681641 182.259 0.364258 183.772 0.364258C185.267 0.364258 186.526 0.608398 187.552 1.09668C188.587 1.5752 189.368 2.26855 189.896 3.17676C190.433 4.0752 190.701 5.14941 190.701 6.39941C190.701 7.10254 190.589 7.79102 190.364 8.46484C190.14 9.12891 189.817 9.79297 189.397 10.457C188.987 11.1113 188.489 11.7754 187.903 12.4492C187.317 13.123 186.668 13.8213 185.955 14.5439L182.249 18.7041H191.39ZM208.382 9.46094V13.1523C208.382 14.7539 208.211 16.1357 207.869 17.2979C207.527 18.4502 207.034 19.3975 206.39 20.1396C205.755 20.8721 204.998 21.4141 204.119 21.7656C203.24 22.1172 202.264 22.293 201.189 22.293C200.33 22.293 199.529 22.1855 198.787 21.9707C198.045 21.7461 197.376 21.3994 196.78 20.9307C196.194 20.4619 195.687 19.8711 195.257 19.1582C194.837 18.4355 194.515 17.5762 194.29 16.5801C194.065 15.584 193.953 14.4414 193.953 13.1523V9.46094C193.953 7.85938 194.124 6.4873 194.466 5.34473C194.817 4.19238 195.311 3.25 195.945 2.51758C196.59 1.78516 197.352 1.24805 198.23 0.90625C199.109 0.554688 200.086 0.378906 201.16 0.378906C202.02 0.378906 202.815 0.491211 203.548 0.71582C204.29 0.930664 204.959 1.26758 205.555 1.72656C206.15 2.18555 206.658 2.77637 207.078 3.49902C207.498 4.21191 207.82 5.06641 208.045 6.0625C208.27 7.04883 208.382 8.18164 208.382 9.46094ZM204.148 13.709V8.88965C204.148 8.11816 204.104 7.44434 204.017 6.86816C203.938 6.29199 203.816 5.80371 203.65 5.40332C203.484 4.99316 203.279 4.66113 203.035 4.40723C202.791 4.15332 202.513 3.96777 202.2 3.85059C201.888 3.7334 201.541 3.6748 201.16 3.6748C200.682 3.6748 200.257 3.76758 199.886 3.95312C199.524 4.13867 199.217 4.43652 198.963 4.84668C198.709 5.24707 198.514 5.78418 198.377 6.45801C198.25 7.12207 198.187 7.93262 198.187 8.88965V13.709C198.187 14.4805 198.226 15.1592 198.304 15.7451C198.392 16.3311 198.519 16.834 198.685 17.2539C198.86 17.6641 199.065 18.001 199.3 18.2646C199.544 18.5186 199.822 18.7041 200.135 18.8213C200.457 18.9385 200.809 18.9971 201.189 18.9971C201.658 18.9971 202.073 18.9043 202.435 18.7188C202.806 18.5234 203.118 18.2207 203.372 17.8105C203.636 17.3906 203.831 16.8438 203.958 16.1699C204.085 15.4961 204.148 14.6758 204.148 13.709ZM225.843 18.7041V22H211.253V19.1875L218.152 11.79C218.846 11.0186 219.393 10.3398 219.793 9.75391C220.193 9.1582 220.481 8.62598 220.657 8.15723C220.843 7.67871 220.936 7.22461 220.936 6.79492C220.936 6.15039 220.828 5.59863 220.613 5.13965C220.398 4.6709 220.081 4.30957 219.661 4.05566C219.251 3.80176 218.743 3.6748 218.138 3.6748C217.493 3.6748 216.937 3.83105 216.468 4.14355C216.009 4.45605 215.657 4.89062 215.413 5.44727C215.179 6.00391 215.062 6.63379 215.062 7.33691H210.828C210.828 6.06738 211.131 4.90527 211.736 3.85059C212.342 2.78613 213.196 1.94141 214.3 1.31641C215.403 0.681641 216.712 0.364258 218.226 0.364258C219.72 0.364258 220.979 0.608398 222.005 1.09668C223.04 1.5752 223.821 2.26855 224.349 3.17676C224.886 4.0752 225.154 5.14941 225.154 6.39941C225.154 7.10254 225.042 7.79102 224.817 8.46484C224.593 9.12891 224.271 9.79297 223.851 10.457C223.44 11.1113 222.942 11.7754 222.356 12.4492C221.771 13.123 221.121 13.8213 220.408 14.5439L216.702 18.7041H225.843ZM243.069 18.7041V22H228.479V19.1875L235.379 11.79C236.072 11.0186 236.619 10.3398 237.02 9.75391C237.42 9.1582 237.708 8.62598 237.884 8.15723C238.069 7.67871 238.162 7.22461 238.162 6.79492C238.162 6.15039 238.055 5.59863 237.84 5.13965C237.625 4.6709 237.308 4.30957 236.888 4.05566C236.478 3.80176 235.97 3.6748 235.364 3.6748C234.72 3.6748 234.163 3.83105 233.694 4.14355C233.235 4.45605 232.884 4.89062 232.64 5.44727C232.405 6.00391 232.288 6.63379 232.288 7.33691H228.055C228.055 6.06738 228.357 4.90527 228.963 3.85059C229.568 2.78613 230.423 1.94141 231.526 1.31641C232.63 0.681641 233.938 0.364258 235.452 0.364258C236.946 0.364258 238.206 0.608398 239.231 1.09668C240.267 1.5752 241.048 2.26855 241.575 3.17676C242.112 4.0752 242.381 5.14941 242.381 6.39941C242.381 7.10254 242.269 7.79102 242.044 8.46484C241.819 9.12891 241.497 9.79297 241.077 10.457C240.667 11.1113 240.169 11.7754 239.583 12.4492C238.997 13.123 238.348 13.8213 237.635 14.5439L233.929 18.7041H243.069Z" fill="#F7DD43"/>
<path d="M56.2871 38.6719H60.0078L65.4863 54.3311L70.9648 38.6719H74.6855L66.9805 60H63.9922L56.2871 38.6719ZM54.2803 38.6719H57.9863L58.6602 53.9355V60H54.2803V38.6719ZM72.9863 38.6719H76.707V60H72.3125V53.9355L72.9863 38.6719ZM89.4951 42.3193L83.6943 60H79.0215L86.9463 38.6719H89.9199L89.4951 42.3193ZM94.3145 60L88.499 42.3193L88.0303 38.6719H91.0332L99.002 60H94.3145ZM94.0508 52.0605V55.5029H82.7861V52.0605H94.0508ZM108.699 38.6719V60H104.319V38.6719H108.699ZM115.262 38.6719V42.1143H97.8594V38.6719H115.262ZM129.72 52.9248H134.1C134.012 54.3604 133.616 55.6348 132.913 56.748C132.22 57.8613 131.248 58.7305 129.998 59.3555C128.758 59.9805 127.264 60.293 125.516 60.293C124.148 60.293 122.923 60.0586 121.839 59.5898C120.755 59.1113 119.827 58.4277 119.056 57.5391C118.294 56.6504 117.713 55.5762 117.312 54.3164C116.912 53.0566 116.712 51.6455 116.712 50.083V48.6035C116.712 47.041 116.917 45.6299 117.327 44.3701C117.747 43.1006 118.343 42.0215 119.114 41.1328C119.896 40.2441 120.828 39.5605 121.912 39.082C122.996 38.6035 124.207 38.3643 125.545 38.3643C127.322 38.3643 128.821 38.6865 130.042 39.3311C131.272 39.9756 132.225 40.8643 132.898 41.9971C133.582 43.1299 133.992 44.4189 134.129 45.8643H129.734C129.686 45.0049 129.515 44.2773 129.222 43.6816C128.929 43.0762 128.484 42.6221 127.889 42.3193C127.303 42.0068 126.521 41.8506 125.545 41.8506C124.812 41.8506 124.173 41.9873 123.626 42.2607C123.079 42.5342 122.62 42.9492 122.249 43.5059C121.878 44.0625 121.6 44.7656 121.414 45.6152C121.238 46.4551 121.15 47.4414 121.15 48.5742V50.083C121.15 51.1865 121.233 52.1582 121.399 52.998C121.565 53.8281 121.819 54.5312 122.161 55.1074C122.513 55.6738 122.962 56.1035 123.509 56.3965C124.065 56.6797 124.734 56.8213 125.516 56.8213C126.434 56.8213 127.19 56.6748 127.786 56.3818C128.382 56.0889 128.836 55.6543 129.148 55.0781C129.471 54.502 129.661 53.7842 129.72 52.9248ZM151.209 47.3584V50.7861H140.076V47.3584H151.209ZM141.38 38.6719V60H136.985V38.6719H141.38ZM154.344 38.6719V60H149.964V38.6719H154.344ZM172.479 56.5723V60H161.126V56.5723H172.479ZM162.562 38.6719V60H158.167V38.6719H162.562ZM170.999 47.3584V50.6982H161.126V47.3584H170.999ZM172.464 38.6719V42.1143H161.126V38.6719H172.464ZM186.146 54.4189C186.146 54.0381 186.087 53.6963 185.97 53.3936C185.862 53.0811 185.657 52.7979 185.354 52.5439C185.052 52.2803 184.627 52.0215 184.08 51.7676C183.533 51.5137 182.825 51.25 181.956 50.9766C180.989 50.6641 180.071 50.3125 179.202 49.9219C178.343 49.5312 177.581 49.0771 176.917 48.5596C176.263 48.0322 175.745 47.4219 175.364 46.7285C174.993 46.0352 174.808 45.2295 174.808 44.3115C174.808 43.4229 175.003 42.6172 175.394 41.8945C175.784 41.1621 176.331 40.5371 177.034 40.0195C177.737 39.4922 178.567 39.0869 179.524 38.8037C180.491 38.5205 181.551 38.3789 182.703 38.3789C184.275 38.3789 185.647 38.6621 186.819 39.2285C187.991 39.7949 188.899 40.5713 189.544 41.5576C190.198 42.5439 190.525 43.6719 190.525 44.9414H186.16C186.16 44.3164 186.028 43.7695 185.765 43.3008C185.511 42.8223 185.12 42.4463 184.593 42.1729C184.075 41.8994 183.421 41.7627 182.63 41.7627C181.868 41.7627 181.233 41.8799 180.726 42.1143C180.218 42.3389 179.837 42.6465 179.583 43.0371C179.329 43.418 179.202 43.8477 179.202 44.3262C179.202 44.6875 179.29 45.0146 179.466 45.3076C179.651 45.6006 179.925 45.874 180.286 46.1279C180.647 46.3818 181.092 46.6211 181.619 46.8457C182.146 47.0703 182.757 47.29 183.45 47.5049C184.612 47.8564 185.633 48.252 186.512 48.6914C187.4 49.1309 188.143 49.624 188.738 50.1709C189.334 50.7178 189.783 51.3379 190.086 52.0312C190.389 52.7246 190.54 53.5107 190.54 54.3896C190.54 55.3174 190.359 56.1475 189.998 56.8799C189.637 57.6123 189.114 58.2324 188.431 58.7402C187.747 59.248 186.932 59.6338 185.984 59.8975C185.037 60.1611 183.978 60.293 182.806 60.293C181.751 60.293 180.711 60.1562 179.686 59.8828C178.66 59.5996 177.728 59.1748 176.888 58.6084C176.058 58.042 175.394 57.3193 174.896 56.4404C174.397 55.5615 174.148 54.5215 174.148 53.3203H178.558C178.558 53.9844 178.66 54.5459 178.865 55.0049C179.07 55.4639 179.358 55.835 179.729 56.1182C180.11 56.4014 180.56 56.6064 181.077 56.7334C181.604 56.8604 182.181 56.9238 182.806 56.9238C183.567 56.9238 184.192 56.8164 184.681 56.6016C185.179 56.3867 185.545 56.0889 185.779 55.708C186.023 55.3271 186.146 54.8975 186.146 54.4189Z" fill="url(#paint1_linear_175_1883)"/>
<defs>
<linearGradient id="paint0_linear_175_1883" x1="122" y1="-7" x2="122" y2="69" gradientUnits="userSpaceOnUse">
<stop stop-color="white"/>
<stop offset="1" stop-color="#D9D9D9" stop-opacity="0.8"/>
</linearGradient>
<linearGradient id="paint1_linear_175_1883" x1="122" y1="-7" x2="122" y2="69" gradientUnits="userSpaceOnUse">
<stop stop-color="white"/>
<stop offset="1" stop-color="#D9D9D9" stop-opacity="0.8"/>
</linearGradient>
</defs>
</svg>



